<?xml version="1.0" encoding="utf-8"?>
<!-- Generator: Adobe Illustrator 23.0.1, SVG Export Plug-In . SVG Version: 6.00 Build 0)  -->
<svg version="1.1" id="Livello_1" xmlns="http://www.w3.org/2000/svg" xmlns:xlink="http://www.w3.org/1999/xlink" x="0px" y="0px"
	 viewBox="0 0 517.3 250" enable-background="new 0 0 517.3 250" xml:space="preserve">
<g>
	
		<linearGradient id="SVGID_1_" gradientUnits="userSpaceOnUse" x1="-680.1917" y1="636.1837" x2="-675.1609" y2="636.9979" gradientTransform="matrix(66.9903 0 0 -19.267 45654.8711 12444.5322)">
		<stop  offset="0" style="stop-color:#8520DA"/>
		<stop  offset="0.2925" style="stop-color:#8123DB"/>
		<stop  offset="0.3885" style="stop-color:#742DDF"/>
		<stop  offset="0.4861" style="stop-color:#603DE4"/>
		<stop  offset="0.5849" style="stop-color:#4254ED"/>
		<stop  offset="0.6835" style="stop-color:#1D70F7"/>
		<stop  offset="0.75" style="stop-color:#0087FF"/>
		<stop  offset="1" style="stop-color:#00E474"/>
	</linearGradient>
	<path fill-rule="evenodd" clip-rule="evenodd" fill="url(#SVGID_1_)" d="M148.8,137.8v91.6h18.3v-91.6c0-10.1,8.2-18.3,18.3-18.3
		l0,0c10.1,0,18.3,8.2,18.3,18.3l0,0H222c0-20.2-16.4-36.6-36.6-36.6l0,0C165.2,101.2,148.8,117.6,148.8,137.8L148.8,137.8z
		 M389.1,119.5v75.5c0,20.2,16.4,36.6,36.6,36.6l0,0v-18.3c-10.1,0-18.3-8.2-18.3-18.3l0,0v-57.2h54.9v-18.3H389.1z M352.5,137.8
		h18.3v-18.3h-18.3V137.8z M0,137.8h18.3v-18.3H0V137.8z M240.3,190.5v38.9h18.3v-38.9c0-10.1,8.2-18.3,18.3-18.3l0,0
		c4,0,17.4,1.6,19.5,21.6l0,0c1.9,17.2,9.8,26.3,16.2,30.9l0,0c8.7,6.3,18,7,21.5,7l0,0c20.2,0,36.6-16.4,36.6-36.6l0,0v-38.9h-18.3
		v38.9c0,10.1-8.2,18.3-18.3,18.3l0,0c-4,0-17.4-1.6-19.5-21.6l0,0c-1.9-17.2-9.8-26.3-16.2-30.9l0,0c-8.7-6.3-18-7-21.5-7l0,0
		C256.8,153.9,240.3,170.3,240.3,190.5L240.3,190.5z M72.3,160.9c-6.4,4.6-14.3,13.7-16.2,30.9l0,0c-2.2,20-15.5,21.6-19.5,21.6l0,0
		c-10.1,0-18.3-8.2-18.3-18.3l0,0v-38.9H0v38.9c0,20.2,16.4,36.6,36.6,36.6l0,0c3.6,0,12.8-0.7,21.5-7l0,0
		c6.4-4.6,14.3-13.7,16.2-30.9l0,0c2.2-20,15.5-21.6,19.5-21.6l0,0c10.1,0,18.3,8.2,18.3,18.3l0,0v38.9h18.3v-38.9
		c0-20.2-16.4-36.6-36.6-36.6l0,0C90.3,153.9,81.1,154.6,72.3,160.9L72.3,160.9z M499,156.2v38.9c0,10.1-8.2,18.3-18.3,18.3l0,0
		c-10.1,0-18.3-8.2-18.3-18.3l0,0v-38.9h-18.3v38.9c0,17.1,11.7,31.4,27.5,35.5l0,0V250h18.3v-19.5c15.8-4.1,27.5-18.4,27.5-35.5
		l0,0v-38.9H499z M185.4,156.2v18.3h18.3v54.9H222v-73.2H185.4z"/>
	<path id="Fill-4" fill-rule="evenodd" clip-rule="evenodd" fill="#323F47" d="M424.4,18.6h-19.2l-6.9,57.7h-12.5l6.9-57.7H374
		L375.4,7h50.3L424.4,18.6z M367,18.6h-24.3l-2,16.3h21.3l-1.4,11.6h-21.3l-2.2,18.2h30.6l-1.4,11.6h-43.1L331.6,7h36.8L367,18.6z
		 M317.3,23.7c-3.8-3.2-10.1-6.1-14.6-6.1c-4.6,0-8.3,3-8.3,7.6c0,10,21.7,11.3,21.7,30.7c0,11.2-6.7,21.2-19.9,21.2
		c-8.5,0-14.8-2.5-20-6.6l1.9-12.1c4.7,4.1,11.7,7.1,16.7,7.1c5.1,0,8.5-3,8.5-7.6c0-11.5-21.7-12.8-21.7-31
		c0-12,8.8-20.9,20.7-20.9c5.7,0,11.7,1.9,16.8,5.5L317.3,23.7z M242,51.3h13.6l-3.1-30.7h-0.2L242,51.3z M271.4,76.2h-12.9
		l-1.8-15.1h-18.3l-5.7,15.1h-13.8l28.8-70.2H261L271.4,76.2z M212.6,76.2h-12.5L208.4,7h12.5L212.6,76.2z M150.1,64.7h11.7
		c13.9,0,19.6-12.2,19.6-24.2c0-12.2-6.9-21.9-19.9-21.9h-6L150.1,64.7z M164,7c23.5,0,30.4,18.7,30.4,33.7
		c0,20.6-12.1,35.5-27.8,35.5h-30.4L144.4,7H164z M130.2,18.6h-24.3l-2,16.3h21.3l-1.4,11.6h-21.3l-2.2,18.2H131l-1.4,11.6H86.5
		L94.8,7h36.8L130.2,18.6z M78.3,76.2H66.2l-1.8-46.8h-0.2L42.4,76.2h-6L26.1,28.1h-0.2L12.6,76.2H0L19.2,7h13.7l9.5,43.6L62.2,7
		h13.3L78.3,76.2z"/>
	<g>
		
			<linearGradient id="SVGID_2_" gradientUnits="userSpaceOnUse" x1="-576.1305" y1="594.9714" x2="-574.2619" y2="592.907" gradientTransform="matrix(9.4857 0 0 -6.0494 5928.2539 3619.7095)">
			<stop  offset="0" style="stop-color:#B26EFF"/>
			<stop  offset="0.4842" style="stop-color:#C576FF"/>
			<stop  offset="1" style="stop-color:#CF7AFF"/>
		</linearGradient>
		<path fill-rule="evenodd" clip-rule="evenodd" fill="url(#SVGID_2_)" d="M450.6,0c-3.4,0-6.5,2.8-6.5,6.6l0,0v0.1
			c0-3.9,3.3-5.7,5.1-2.6l0,0l19.4,33.6c0.7,1.1,1,2.4,1,3.6l0,0c0,1.3-0.3,2.5-1,3.6l0,0c0.7-1.1,1.6-2,2.7-2.7l0,0
			c1.1-0.6,2.3-1,3.6-1l0,0h38.9c3.4,0,3.6,3.4,0.7,5.4l0,0c1.9-1.3,2.9-3.4,2.9-5.4l0,0c0-2.2-1.1-4.4-3.3-5.7l0,0L453.9,0.9
			c-1-0.6-2.1-0.9-3.2-0.9l0,0H450.6z"/>
		
			<linearGradient id="SVGID_3_" gradientUnits="userSpaceOnUse" x1="-574.0005" y1="579.0727" x2="-570.3038" y2="580.2901" gradientTransform="matrix(9.3754 0 0 -5.3466 5851.9888 3156.5144)">
			<stop  offset="0" style="stop-color:#8520DA"/>
			<stop  offset="0.6815" style="stop-color:#9136DD"/>
			<stop  offset="1" style="stop-color:#9D4DE1"/>
		</linearGradient>
		<path fill-rule="evenodd" clip-rule="evenodd" fill="url(#SVGID_3_)" d="M474.9,41.3c-1.3,0-2.6,0.3-3.6,1l0,0
			c-1.1,0.6-2,1.5-2.7,2.7l0,0l-5.4,9.4l-14,24.2c-1.8,3.1-5.1,1.2-5.1-2.6l0,0V76c0,5,5.5,8.2,9.8,5.7l0,0l0.1,0L514,47
			c0,0,0.1,0,0.1-0.1l0,0c0,0,0.1,0,0.1-0.1l0,0c0,0,0,0,0.1,0l0,0c0,0,0.1-0.1,0.1-0.1l0,0c2.9-2,2.7-5.4-0.7-5.4l0,0H474.9z"/>
		
			<linearGradient id="SVGID_4_" gradientUnits="userSpaceOnUse" x1="-364.9619" y1="621.5339" x2="-361.1009" y2="621.5339" gradientTransform="matrix(3.299 0 0 -10.0634 1648.0835 6296.0386)">
			<stop  offset="0" style="stop-color:#B3B3B3"/>
			<stop  offset="6.699999e-02" style="stop-color:#C9C9C9"/>
			<stop  offset="0.1596" style="stop-color:#E1E1E1"/>
			<stop  offset="0.2581" style="stop-color:#F2F2F2"/>
			<stop  offset="0.3659" style="stop-color:#FCFCFC"/>
			<stop  offset="1" style="stop-color:#FFFFFF"/>
		</linearGradient>
		<path fill-rule="evenodd" clip-rule="evenodd" fill="url(#SVGID_4_)" d="M444.1,6.6v69.3c0,3.9,3.3,5.7,5.1,2.6l0,0l14-24.2
			l5.4-9.4c0.7-1.1,1-2.4,1-3.6l0,0c0-1.3-0.3-2.5-1-3.6l0,0L449.1,4c-0.6-1.1-1.4-1.6-2.2-1.6l0,0C445.4,2.4,444.1,4.1,444.1,6.6"
			/>
	</g>
</g>
</svg>
